<?xml version="1.0" encoding="iso-8859-1"?>
<!-- Uploaded to: SVG Repo, www.svgrepo.com, Generator: SVG Repo Mixer Tools -->
<svg fill="#000000" height="800px" width="800px" version="1.1" id="Layer_1" xmlns="http://www.w3.org/2000/svg" xmlns:xlink="http://www.w3.org/1999/xlink" 
	 viewBox="0 0 512 512" xml:space="preserve">
<g>
	<g>
		<path d="M167.519,253.964H85.358c-5.633,0-10.199,4.566-10.199,10.199v67.414c0,5.633,4.566,10.199,10.199,10.199h82.161
			c5.633,0,10.199-4.566,10.199-10.199v-67.414C177.718,258.53,173.152,253.964,167.519,253.964z M157.32,321.377H95.557v-47.016
			h61.763V321.377z"/>
	</g>
</g>
<g>
	<g>
		<path d="M426.641,253.963H344.48c-5.633,0-10.199,4.566-10.199,10.199v67.414c0,5.633,4.566,10.199,10.199,10.199h82.161
			c5.633,0,10.199-4.566,10.199-10.199v-67.414C436.84,258.53,432.274,253.963,426.641,253.963z M416.442,321.379h-61.763v-47.016
			h61.763V321.379z"/>
	</g>
</g>
<g>
	<g>
		<path d="M258.595,140.183c-2.735-4.924-8.944-6.699-13.869-3.963l-15.8,8.777c-4.924,2.735-6.698,8.946-3.962,13.869
			c1.864,3.356,5.34,5.248,8.925,5.248c1.676,0,3.375-0.414,4.944-1.285l15.8-8.777
			C259.557,151.316,261.331,145.106,258.595,140.183z"/>
	</g>
</g>
<g>
	<g>
		<path d="M203.821,170.613c-2.734-4.924-8.944-6.7-13.869-3.963l-87.428,48.57c-4.924,2.735-6.698,8.945-3.962,13.869
			c1.864,3.355,5.34,5.248,8.925,5.248c1.676,0,3.375-0.414,4.943-1.285l87.428-48.57
			C204.783,181.746,206.556,175.537,203.821,170.613z"/>
	</g>
</g>
<g>
	<g>
		<path d="M240.199,322.431c-5.633,0-10.199,4.566-10.199,10.199v8.427c0,5.633,4.566,10.199,10.199,10.199
			s10.199-4.566,10.199-10.199v-8.427C250.398,326.997,245.832,322.431,240.199,322.431z"/>
	</g>
</g>
<g>
	<g>
		<path d="M506.85,230.045l-82.651-47.114v-69.396c0-5.633-4.566-10.199-10.199-10.199h-55.827c-5.633,0-10.199,4.566-10.199,10.199
			v25.944l-86.924-49.55c-3.13-1.785-6.971-1.785-10.101,0L5.15,230.045c-4.894,2.789-6.6,9.018-3.809,13.912
			c2.79,4.894,9.019,6.599,13.912,3.809l12.507-7.13V413.21c0,5.633,4.566,10.199,10.199,10.199h436.083
			c5.633,0,10.199-4.566,10.199-10.199V240.636l12.507,7.13c1.594,0.909,3.329,1.34,5.041,1.34c3.544,0,6.989-1.85,8.87-5.15
			C513.449,239.063,511.744,232.835,506.85,230.045z M368.372,123.735h35.429v47.095l-35.429-20.055V123.735z M290.925,401.432
			h-69.852V273.309h69.852V401.432z M463.842,403.011h-0.001H311.324V263.11c0-5.633-4.566-10.199-10.199-10.199h-90.25
			c-5.633,0-10.199,4.566-10.199,10.199v139.901H48.157V229.009L256,110.529l207.843,118.48V403.011z"/>
	</g>
</g>
</svg>