<?xml version="1.0" encoding="iso-8859-1"?>
<!-- Uploaded to: SVG Repo, www.svgrepo.com, Generator: SVG Repo Mixer Tools -->
<!DOCTYPE svg PUBLIC "-//W3C//DTD SVG 1.1//EN" "http://www.w3.org/Graphics/SVG/1.1/DTD/svg11.dtd">
<svg fill="#000000" version="1.1" id="Capa_1" xmlns="http://www.w3.org/2000/svg" xmlns:xlink="http://www.w3.org/1999/xlink" 
	 width="800px" height="800px" viewBox="0 0 564.189 564.189"
	 xml:space="preserve">
<g>
	<g>
		<path d="M179.814,545.053c-1.109-3.279-2.658-6.482-4.6-9.562c-7.669-12.136-21.19-21.908-36.844-21.908
			c-15.855,0-29.701,9.113-37.351,21.908c-1.033,1.73-1.97,3.519-2.773,5.374c-0.746-1.836-1.635-3.597-2.611-5.298V535.5v-8.271
			v-7.67v-31.871h-6.273H84.6h-3.012h-5.087H75.86c0.21,0.19,0.43,0.383,0.641,0.582v18.801v5.556v4.906
			c-5.852-2.859-12.412-4.466-19.364-4.466c-14.076,0-30.007,5.526-37.236,18.456c-2.142,3.814-3.347,8.386-3.691,13.54h-0.067
			h-3.997h-0.545H9.564v19.125h3.194h3.978h165.125h4.992h4.982h8.979v-19.125L179.814,545.053z"/>
		<polygon points="76.501,478.125 78.423,478.125 83.175,478.125 88.444,478.125 93.311,478.125 95.625,478.125 130.863,478.125 
			125.107,455.424 124.15,451.637 122.926,446.827 86.302,302.414 45.795,469.997 44.466,475.495 43.835,478.125 68.545,478.125 		
			"/>
		<path d="M478.125,153H459h-19.125v9.562v9.562v19.126v9.562v19.125v9.562v19.125v9.562v19.125v9.562v19.125v9.562v19.125v9.562
			v19.125v9.562v19.125v9.562v19.129v9.562v19.125v95.625h-9.562v-95.625H382.5v-19.125h47.812v-9.562H382.5v-19.125h47.812v-9.562
			H382.5v-19.125h47.812v-9.562H382.5V344.25h47.812v-9.562H382.5v-19.125h47.812v-9.562H382.5v-19.125h47.812v-9.562H382.5v-19.125
			h47.812v-9.562H382.5V229.5h47.812v-9.562H382.5v-19.125h47.812v-9.563H382.5v-19.125h47.812v-9.562H382.5v-19.125h47.812h9.562
			h4.78H459h19.125V95.626H459V76.5h-19.125V57.375h-9.562V0h-19.125v57.375h-9.562V76.5H382.5v19.125h-19.125v449.438h-28.688
			V411.188l-28.439-86.062h-48.061v28.688h9.562v-19.125h31.613l25.762,77.274v133.101h-28.688v19.125h133.876h9.562h114.75v-19.125
			V153H478.125z M382.5,114.75H459v19.125h-76.5V114.75z M487.688,478.125V459h19.125v19.125H487.688z M459,459h19.125v19.125H459
			V459z M459,430.312h19.125v19.125H459V430.312z M459,401.625h19.125v19.125H459V401.625z M459,372.938h19.125v19.125H459V372.938z
			 M459,344.25h19.125v19.125H459V344.25z M459,315.562h19.125v19.125H459V315.562z M459,286.875h19.125V306H459V286.875z
			 M459,258.188h19.125v19.125H459V258.188z M459,229.5h19.125v19.125H459V229.5z M459,200.812h19.125v19.125H459V200.812z
			 M506.813,219.938h-19.125v-19.125h19.125V219.938z M506.813,248.625h-19.125V229.5h19.125V248.625z M506.813,277.312h-19.125
			v-19.125h19.125V277.312z M506.813,306h-19.125v-19.125h19.125V306z M506.813,334.688h-19.125v-19.125h19.125V334.688z
			 M506.813,363.375h-19.125V344.25h19.125V363.375z M506.813,392.062h-19.125v-19.125h19.125V392.062z M506.813,420.75h-19.125
			v-19.125h19.125V420.75z M506.813,449.438h-19.125v-19.125h19.125V449.438z M516.375,459H535.5v19.125h-19.125V459z
			 M516.375,449.438v-19.125H535.5v19.125H516.375z M516.375,420.75v-19.125H535.5v19.125H516.375z M516.375,392.062v-19.125H535.5
			v19.125H516.375z M516.375,363.375V344.25H535.5v19.125H516.375z M516.375,334.688v-19.125H535.5v19.125H516.375z M516.375,306
			v-19.125H535.5V306H516.375z M516.375,277.312v-19.125H535.5v19.125H516.375z M516.375,248.625V229.5H535.5v19.125H516.375z
			 M516.375,219.938v-19.125H535.5v19.125H516.375z M516.375,191.25v-19.125H535.5v19.125H516.375z M506.813,191.25h-19.125v-19.125
			h19.125V191.25z M478.125,172.125v19.125H459v-19.125H478.125z"/>
		<polygon points="258.188,363.375 239.063,401.625 286.875,401.625 267.75,363.375 		"/>
	</g>
</g>
</svg>